# xmcd
#
# Track frame offsets: 
#        150
#        9518
#        29131
#        51114
#        61419
#        82562
#        132602
#        156197
#        185860
#        243858
#        275021
#        312799
#        346602
#
# Disc length: 4777 seconds
#
# Revision: 0
# Processed by: cddbd v1.5.2PL0 Copyright (c) Steve Scherf et al.
# Submitted via: ExactAudioCopy v1.0b4
#
DISCID=b012a70d
DTITLE=Harper - Epocalypse
DYEAR=2003
DGENRE=Blues Rock
TTITLE0=Prelude Op. 32 No. 12 - Rachman
TTITLE1=The Poet and the Puppets
TTITLE2=Tranquillity Bass
TTITLE3=Amazon
TTITLE4=A Day In The Life
TTITLE5=Piano Concerto No. 1 - Rachmani
TTITLE6=Infinium Part I
TTITLE7=Omicron
TTITLE8=Moonlight Sonata - Beethoven
TTITLE9=Salvation
TTITLE10=Barcole - Chopin
TTITLE11=Infinium Part Ii
TTITLE12=El Loro Triste
EXTD=
EXTT0=
EXTT1=
EXTT2=
EXTT3=
EXTT4=
EXTT5=
EXTT6=
EXTT7=
EXTT8=
EXTT9=
EXTT10=
EXTT11=
EXTT12=
PLAYORDER=
